<svg id="Layer_1" data-name="Layer 1" xmlns="http://www.w3.org/2000/svg" viewBox="0 0 275.09 110.23"><defs><style>.cls-1{fill:#41535d;}.cls-2{fill:#00a9c3;}</style></defs><title>Silicon_Foundry_logo_FC_RGB-no-background</title><path class="cls-1" d="M37.58,63.24A7.46,7.46,0,0,0,39,67q1.91,2.27,6.51,2.26a13.85,13.85,0,0,0,4.48-.6q3.27-1.14,3.27-4.24a3.11,3.11,0,0,0-1.6-2.8,17.07,17.07,0,0,0-5.08-1.71l-4-.87q-5.84-1.29-8-2.81-3.69-2.52-3.69-7.91a10.52,10.52,0,0,1,3.61-8.17q3.61-3.24,10.63-3.25a16.29,16.29,0,0,1,10,3.07,10.9,10.9,0,0,1,4.34,8.89H52.1a5.23,5.23,0,0,0-3-4.69,10.13,10.13,0,0,0-4.55-.91,8.65,8.65,0,0,0-4.84,1.19A3.76,3.76,0,0,0,38,47.76a3.14,3.14,0,0,0,1.78,2.93A22.14,22.14,0,0,0,44.6,52.2L51,53.72a16.24,16.24,0,0,1,6.32,2.65,9,9,0,0,1,3.27,7.47,10.51,10.51,0,0,1-3.87,8.33q-3.89,3.3-11,3.31-7.23,0-11.36-3.27a10.78,10.78,0,0,1-4.14-9Z"/><path class="cls-1" d="M75.45,37.63l1.49.11v5.75c-.39-.05-1.06-.08-2-.11A2.32,2.32,0,0,0,73,44a2.24,2.24,0,0,0-.53,1.45v2.29h4.64v5H72.48V74.53h-7V52.72h-4v-5h3.88V46c0-2.89.48-4.89,1.46-6q1.55-2.43,7.42-2.43C74.69,37.59,75.09,37.6,75.45,37.63Z"/><path class="cls-2" d="M110.23,110.23H0V0H110.23ZM12,98.27H98.27V12H12Z"/><path class="cls-1" d="M78.07,23.07V21.94a7.69,7.69,0,0,0,1.1-.11,1.53,1.53,0,0,0,.82-.44,1.69,1.69,0,0,0,.33-.61,1.61,1.61,0,0,0,.06-.34h1.4v8.49H80.06V23.07Z"/><path class="cls-1" d="M89.58,27.11h-1v1.82H87V27.11H83.62V25.65l3.13-5.16h1.87V25.8h1ZM87,25.8V22.14L84.87,25.8Z"/><path class="cls-1" d="M141.6,44.66a5.68,5.68,0,0,0,1.09,2.93q1.49,1.75,5.08,1.76a10.91,10.91,0,0,0,3.5-.46,3.34,3.34,0,0,0,2.56-3.32,2.46,2.46,0,0,0-1.25-2.19,13.85,13.85,0,0,0-4-1.34l-3.09-.67a19.73,19.73,0,0,1-6.27-2.19c-1.92-1.32-2.89-3.38-2.89-6.19a8.22,8.22,0,0,1,2.83-6.37q2.82-2.53,8.3-2.54a12.78,12.78,0,0,1,7.8,2.39,8.5,8.5,0,0,1,3.38,7h-5.74a4.07,4.07,0,0,0-2.3-3.66,7.86,7.86,0,0,0-3.56-.72,6.77,6.77,0,0,0-3.77.93,3,3,0,0,0-1.41,2.6,2.43,2.43,0,0,0,1.39,2.28A17.26,17.26,0,0,0,147.07,36l5,1.18A13,13,0,0,1,157,39.29a7,7,0,0,1,2.55,5.84,8.2,8.2,0,0,1-3,6.5q-3,2.58-8.55,2.58c-3.76,0-6.71-.84-8.87-2.54a8.46,8.46,0,0,1-3.23-7Z"/><path class="cls-1" d="M168.21,29.84h-5.6v-5.1h5.6Zm-5.6,2.51h5.6V53.48h-5.6Z"/><path class="cls-1" d="M177.61,53.48h-5.53V24.91h5.53V53.48Z"/><path class="cls-1" d="M187.08,29.84h-5.6v-5.1h5.6Zm-5.6,2.51h5.6V53.48h-5.6Z"/><path class="cls-1" d="M203.48,39.93a4.79,4.79,0,0,0-.8-2.13,3.34,3.34,0,0,0-2.89-1.28A3.82,3.82,0,0,0,196,39.29a11.59,11.59,0,0,0-.54,3.91,10.67,10.67,0,0,0,.54,3.73,3.7,3.7,0,0,0,3.73,2.63,3.3,3.3,0,0,0,2.76-1,5.1,5.1,0,0,0,1-2.72h5.64a9.3,9.3,0,0,1-1.82,4.77,8.87,8.87,0,0,1-7.7,3.63c-3.4,0-5.91-1-7.51-3a12.23,12.23,0,0,1-2.41-7.84q0-5.43,2.66-8.46a9.27,9.27,0,0,1,7.33-3,11.1,11.1,0,0,1,6.51,1.78q2.54,1.78,3,6.3Z"/><path class="cls-1" d="M230.14,50.89c-1.79,2.21-4.49,3.31-8.12,3.31s-6.34-1.1-8.12-3.31A12.18,12.18,0,0,1,211.22,43,12.26,12.26,0,0,1,213.9,35c1.78-2.24,4.49-3.35,8.12-3.35s6.33,1.11,8.12,3.35A12.31,12.31,0,0,1,232.81,43,12.23,12.23,0,0,1,230.14,50.89Zm-4.42-3A8,8,0,0,0,227,43a8,8,0,0,0-1.3-4.89,4.91,4.91,0,0,0-7.45,0A7.86,7.86,0,0,0,217,43a7.9,7.9,0,0,0,1.31,4.89,4.89,4.89,0,0,0,7.45,0Z"/><path class="cls-1" d="M252.21,33.57c1.38,1.14,2.07,3,2.07,5.68V53.48h-5.65V40.63a5.84,5.84,0,0,0-.45-2.56,3.12,3.12,0,0,0-3.08-1.63,3.81,3.81,0,0,0-3.82,2.39,8.2,8.2,0,0,0-.54,3.21V53.48h-5.52V32.39h5.34v3.08a9.52,9.52,0,0,1,2-2.34,7,7,0,0,1,4.3-1.28A8.06,8.06,0,0,1,252.21,33.57Z"/><path class="cls-1" d="M137.3,57.08h20.36v5H143.23v6.57h12.65v5H143.23v12H137.3Z"/><path class="cls-1" d="M177.12,83q-2.67,3.3-8.12,3.3T160.88,83a13.11,13.11,0,0,1,0-15.86c1.78-2.24,4.49-3.35,8.12-3.35s6.34,1.11,8.12,3.35a13.11,13.11,0,0,1,0,15.86Zm-4.42-3a8,8,0,0,0,1.3-4.9,7.92,7.92,0,0,0-1.3-4.88,4.91,4.91,0,0,0-7.45,0,7.92,7.92,0,0,0-1.31,4.88,8,8,0,0,0,1.31,4.9,4.89,4.89,0,0,0,7.45,0Z"/><path class="cls-1" d="M230,64.82a6.64,6.64,0,0,1,2.43,2.34V57.08H238V85.61h-5.37V82.68a7.9,7.9,0,0,1-2.69,2.73,7.58,7.58,0,0,1-3.76.86,7.83,7.83,0,0,1-6.23-3,11.47,11.47,0,0,1-2.53-7.68c0-3.61.83-6.44,2.49-8.51a8.09,8.09,0,0,1,6.65-3.1A6.81,6.81,0,0,1,230,64.82Zm1.36,15.05a7.65,7.65,0,0,0,1.22-4.51q0-3.89-2-5.55a4.21,4.21,0,0,0-2.79-1,3.87,3.87,0,0,0-3.55,1.83,9.81,9.81,0,0,0,0,9.22,3.89,3.89,0,0,0,3.5,1.75A4.07,4.07,0,0,0,231.33,79.87Z"/><path class="cls-1" d="M253.16,64l.48,0v5.66c-.35,0-.66-.07-.93-.08l-.66,0c-2.22,0-3.72.72-4.48,2.17a8.53,8.53,0,0,0-.64,3.76v10.1h-5.56V64.48h5.27v3.69a11.54,11.54,0,0,1,2.23-2.89,6,6,0,0,1,4-1.3Z"/><path class="cls-1" d="M257.11,89.66l.7,0a9.81,9.81,0,0,0,1.55-.06,2.91,2.91,0,0,0,1.24-.45,3,3,0,0,0,.9-1.37,3.29,3.29,0,0,0,.36-1.28L254.1,64.48h6.14l4.61,15.58,4.36-15.58h5.88l-7.25,20.78c-1.4,4-2.5,6.49-3.32,7.45s-2.44,1.44-4.89,1.44h-1.18c-.3,0-.74,0-1.34-.06Z"/><path class="cls-1" d="M212.32,65.81a8.12,8.12,0,0,0-5.32-1.7,6.94,6.94,0,0,0-4.29,1.27,9.33,9.33,0,0,0-2,2.34V64.61h-5.33V76.06a8.43,8.43,0,0,1-.53,3.26A3.86,3.86,0,0,1,191,81.6,2.91,2.91,0,0,1,188.07,80a6.47,6.47,0,0,1-.43-2.7V64.61H182V77.29a13,13,0,0,0,.9,5.47q1.62,3.34,6.28,3.35a8.63,8.63,0,0,0,2.82-.42,7.62,7.62,0,0,0,2.49-1.58,4,4,0,0,0,.73-.85c.21-.32.33-.52.39-.58v3h5.27V74.26a8.32,8.32,0,0,1,.53-3.2,3.8,3.8,0,0,1,3.82-2.38,3.09,3.09,0,0,1,3.06,1.62,5.81,5.81,0,0,1,.44,2.55v12.8h5.64V71.48Q214.38,67.52,212.32,65.81Z"/></svg>